<svg width="25" height="25" fill="none" xmlns="http://www.w3.org/2000/svg"><path d="M12.56 5.451a6.924 6.924 0 00-6.917 6.916A6.896 6.896 0 006.7 16.046l.164.26-.699 2.552 2.618-.686.252.15a6.902 6.902 0 003.52.963h.002a6.925 6.925 0 006.394-9.563A6.87 6.87 0 0017.45 7.48a6.87 6.87 0 00-4.89-2.028zm4.066 9.886c-.173.486-1.004.928-1.402.988a2.838 2.838 0 01-1.31-.082 11.85 11.85 0 01-1.185-.438c-2.086-.9-3.447-2.998-3.553-3.139-.102-.138-.847-1.127-.847-2.15s.536-1.526.727-1.734a.767.767 0 01.555-.259c.139 0 .277.002.399.007.127.006.298-.048.466.357.174.417.59 1.44.642 1.543.051.103.086.225.018.364-.07.14-.103.225-.208.348-.103.122-.218.27-.311.365-.105.103-.213.215-.092.423.122.207.539.89 1.156 1.44.794.709 1.465.927 1.672 1.033.208.102.329.087.451-.053.121-.14.52-.607.659-.814.138-.208.276-.174.468-.106.19.071 1.212.573 1.419.677.206.103.346.155.399.243.05.086.05.501-.123.987z" fill="#D9335A"/><path d="M23.611 0H1.39A1.389 1.389 0 000 1.389V23.61A1.389 1.389 0 001.389 25H23.61A1.389 1.389 0 0025 23.611V1.39A1.389 1.389 0 0023.611 0zM12.556 20.689h-.003a8.307 8.307 0 01-3.975-1.013l-4.411 1.157 1.18-4.31a8.32 8.32 0 017.209-12.477 8.264 8.264 0 015.886 2.44 8.266 8.266 0 012.432 5.885 8.33 8.33 0 01-8.318 8.318z" fill="#D9335A"/></svg>