<svg width="322" height="51" fill="none" xmlns="http://www.w3.org/2000/svg"><path d="M.025 25.561v-4.18L25.6 10.491v4.51l-20.35 8.47 20.35 8.47v4.51L.025 25.561zm296.355 6.38l20.35-8.47-20.35-8.47v-4.51l25.575 10.89v4.18l-25.575 10.89v-4.51z" fill="#4F4F4F"/><path d="M45.158 40.796c-1.65 0-3.153-.202-4.51-.605a20.297 20.297 0 01-3.63-1.485 16.722 16.722 0 01-2.804-2.035 22.623 22.623 0 01-2.09-2.145l3.08-3.465a26.242 26.242 0 001.704 1.87c.66.587 1.394 1.118 2.2 1.595.807.44 1.706.807 2.696 1.1 1.026.293 2.145.44 3.354.44 1.357 0 2.604-.147 3.74-.44 1.137-.33 2.109-.788 2.915-1.375a6.484 6.484 0 001.98-2.145c.477-.88.715-1.87.715-2.97 0-1.943-.733-3.502-2.2-4.675-1.466-1.173-3.794-1.76-6.984-1.76h-3.41v-4.51h3.41c1.21 0 2.255-.147 3.135-.44.916-.33 1.668-.752 2.255-1.265.623-.55 1.081-1.173 1.375-1.87.293-.697.44-1.412.44-2.145 0-.953-.202-1.778-.606-2.475a4.928 4.928 0 00-1.595-1.76c-.66-.477-1.43-.825-2.31-1.045a9.016 9.016 0 00-2.64-.385c-1.906 0-3.575.385-5.005 1.155-1.393.733-2.474 1.723-3.244 2.97l-3.136-3.135c1.137-1.577 2.659-2.915 4.566-4.015 1.943-1.137 4.216-1.705 6.82-1.705 1.87 0 3.556.238 5.06.715 1.503.44 2.786 1.1 3.85 1.98a8.305 8.305 0 012.53 3.19c.586 1.247.88 2.658.88 4.235 0 1.613-.459 3.117-1.375 4.51-.88 1.357-2.09 2.438-3.63 3.245 2.2.733 3.904 1.943 5.114 3.63 1.247 1.65 1.87 3.593 1.87 5.83 0 1.723-.366 3.282-1.1 4.675-.733 1.393-1.76 2.585-3.08 3.575-1.283.99-2.823 1.76-4.62 2.31-1.76.55-3.666.825-5.72.825zm22.529-38.06h6.765l13.255 30.91 13.255-30.91h6.765v37.4h-5.06v-29.59l-12.65 29.59h-4.62l-12.65-29.59v29.59h-5.06v-37.4zm69.439 33.495a11.36 11.36 0 01-4.015 3.3c-1.613.807-3.41 1.21-5.39 1.21-1.943 0-3.74-.348-5.39-1.045a12.9 12.9 0 01-4.29-2.915c-1.173-1.283-2.108-2.805-2.805-4.565-.66-1.76-.99-3.722-.99-5.885 0-2.127.33-4.07.99-5.83.697-1.76 1.632-3.263 2.805-4.51a12.522 12.522 0 014.29-2.97c1.65-.697 3.447-1.045 5.39-1.045 1.98 0 3.777.403 5.39 1.21a11.362 11.362 0 014.015 3.3v-15.4h4.95v39.05h-4.95v-3.905zm-8.525 0c1.944 0 3.667-.477 5.17-1.43 1.504-.953 2.622-2.2 3.355-3.74v-9.35c-.733-1.577-1.851-2.842-3.355-3.795-1.503-.953-3.226-1.43-5.17-1.43a9.97 9.97 0 00-3.63.66 8.142 8.142 0 00-2.97 1.98c-.843.843-1.503 1.87-1.98 3.08-.476 1.21-.715 2.585-.715 4.125s.239 2.933.715 4.18c.477 1.21 1.137 2.255 1.98 3.135a8.489 8.489 0 002.97 1.925 9.97 9.97 0 003.63.66zm21.081-23.65h4.95v27.555h-4.95V12.581zm-.22-12.21h5.335v5.94h-5.335V.371zm23.954 38.5c-1.943 0-3.703-.312-5.28-.935-1.576-.66-2.933-1.577-4.07-2.75-1.1-1.21-1.961-2.64-2.585-4.29-.623-1.65-.935-3.483-.935-5.5 0-1.98.312-3.795.935-5.445.624-1.65 1.485-3.062 2.585-4.235a11.126 11.126 0 014.07-2.75c1.577-.66 3.337-.99 5.28-.99 1.98 0 3.704.403 5.17 1.21a11.788 11.788 0 013.85 3.135v-3.74h4.95v23.925c0 2.383-.385 4.473-1.155 6.27-.733 1.797-1.741 3.282-3.025 4.455a11.872 11.872 0 01-4.345 2.695c-1.65.623-3.373.935-5.17.935-3.043 0-5.61-.568-7.7-1.705-2.053-1.1-3.666-2.585-4.84-4.455l3.245-3.025c.99 1.503 2.237 2.658 3.74 3.465 1.504.807 3.3 1.21 5.39 1.21a9.54 9.54 0 003.41-.605 7.264 7.264 0 002.805-1.76c.844-.77 1.504-1.76 1.98-2.97.477-1.173.715-2.567.715-4.18v-2.255a11.788 11.788 0 01-3.85 3.135c-1.503.77-3.226 1.155-5.17 1.155zm.99-4.51c1.834 0 3.447-.44 4.84-1.32a8.595 8.595 0 003.19-3.575v-8.085a8.596 8.596 0 00-3.19-3.575c-1.393-.88-3.006-1.32-4.84-1.32-1.32 0-2.53.22-3.63.66a8.365 8.365 0 00-2.75 1.815c-.77.77-1.375 1.705-1.815 2.805-.403 1.1-.605 2.31-.605 3.63 0 1.32.202 2.53.605 3.63a8.855 8.855 0 001.815 2.86 8.365 8.365 0 002.75 1.815c1.1.44 2.31.66 3.63.66zm20.554-21.78h4.95v27.555h-4.95V12.581zm-.22-12.21h5.335v5.94h-5.335V.371zm24.175 40.04c-3.154 0-5.537-.788-7.15-2.365-1.577-1.613-2.365-4.143-2.365-7.59V16.651h-4.785v-4.07h4.895v-7.15h4.84v7.15h6.765v4.07h-6.765v13.97c0 2.053.458 3.483 1.375 4.29.953.807 2.456 1.21 4.51 1.21h.88v4.07a6.967 6.967 0 01-1.045.165c-.367.037-.752.055-1.155.055zm28.265-4.18a11.368 11.368 0 01-4.015 3.3c-1.613.807-3.41 1.21-5.39 1.21-1.943 0-3.74-.348-5.39-1.045a12.9 12.9 0 01-4.29-2.915c-1.173-1.283-2.108-2.805-2.805-4.565-.66-1.76-.99-3.722-.99-5.885 0-2.127.33-4.07.99-5.83.697-1.76 1.632-3.263 2.805-4.51a12.522 12.522 0 014.29-2.97c1.65-.697 3.447-1.045 5.39-1.045 1.98 0 3.777.403 5.39 1.21a11.37 11.37 0 014.015 3.3v-3.905h4.95v27.555h-4.95v-3.905zm-8.525 0c1.943 0 3.667-.458 5.17-1.375 1.503-.917 2.622-2.145 3.355-3.685v-9.57c-.733-1.54-1.852-2.768-3.355-3.685-1.503-.953-3.227-1.43-5.17-1.43a9.294 9.294 0 00-3.63.715 8.472 8.472 0 00-2.97 1.925c-.843.843-1.503 1.87-1.98 3.08-.477 1.21-.715 2.585-.715 4.125s.238 2.933.715 4.18c.477 1.21 1.137 2.237 1.98 3.08a9.157 9.157 0 002.97 1.98 9.97 9.97 0 003.63.66zm21.08-35.145h4.95v39.05h-4.95V1.086z" fill="#333"/><path d="M285.945 2.736h4.675l-16.115 37.4h-4.675l16.115-37.4z" fill="#D9335A"/></svg>