<svg width="989" height="252" fill="none" xmlns="http://www.w3.org/2000/svg"><path d="M150.06 107.25c-7.7 0-14.75-1.3-21.15-3.9-6.4-2.7-11.95-6.4-16.65-11.1-4.6-4.7-8.2-10.3-10.8-16.8-2.6-6.6-3.9-13.75-3.9-21.45 0-7.7 1.3-14.8 3.9-21.3 2.6-6.5 6.2-12.1 10.8-16.8 4.7-4.8 10.25-8.5 16.65-11.1 6.4-2.7 13.45-4.05 21.15-4.05 10.8 0 20 2.2 27.6 6.6 7.7 4.3 13.85 10.15 18.45 17.55l-17.25 13.05c-3.2-4.8-6.95-8.6-11.25-11.4-4.3-2.8-10-4.2-17.1-4.2-4.5 0-8.55.8-12.15 2.4-3.5 1.6-6.5 3.85-9 6.75-2.4 2.8-4.3 6.15-5.7 10.05-1.3 3.8-1.95 7.95-1.95 12.45 0 4.5.65 8.7 1.95 12.6 1.4 3.8 3.3 7.15 5.7 10.05 2.5 2.8 5.5 5 9 6.6 3.6 1.6 7.65 2.4 12.15 2.4 7.1 0 12.8-1.4 17.1-4.2 4.3-2.8 8.05-6.6 11.25-11.4l17.25 13.05c-4.6 7.4-10.75 13.3-18.45 17.7-7.6 4.3-16.8 6.45-27.6 6.45zm94.672 0c-7.2 0-13.45-1.15-18.75-3.45-5.3-2.4-9.75-5.55-13.35-9.45-3.5-3.9-6.1-8.3-7.8-13.2-1.7-5-2.55-10.1-2.55-15.3 0-5.2.85-10.25 2.55-15.15 1.7-5 4.3-9.45 7.8-13.35 3.6-3.9 8.05-7 13.35-9.3 5.3-2.4 11.55-3.6 18.75-3.6 7.2 0 13.45 1.2 18.75 3.6 5.3 2.3 9.7 5.4 13.2 9.3 3.6 3.9 6.25 8.35 7.95 13.35a45.9 45.9 0 012.55 15.15c0 5.2-.85 10.3-2.55 15.3-1.7 4.9-4.35 9.3-7.95 13.2-3.5 3.9-7.9 7.05-13.2 9.45-5.3 2.3-11.55 3.45-18.75 3.45zm0-20.1c5.7 0 10.3-1.9 13.8-5.7 3.6-3.9 5.4-9.1 5.4-15.6s-1.8-11.65-5.4-15.45c-3.5-3.9-8.1-5.85-13.8-5.85-5.7 0-10.35 1.95-13.95 5.85-3.5 3.8-5.25 8.95-5.25 15.45s1.75 11.7 5.25 15.6c3.6 3.8 8.25 5.7 13.95 5.7zm83.574 20.1c-8.7 0-15.95-1.25-21.75-3.75-5.7-2.6-10.45-6.15-14.25-10.65l12-15c3.3 3.7 6.8 6.35 10.5 7.95 3.7 1.6 7.7 2.4 12 2.4 4.9 0 8.45-.65 10.65-1.95 2.2-1.3 3.3-3 3.3-5.1 0-2.1-.9-3.75-2.7-4.95-1.8-1.3-5.35-1.95-10.65-1.95h-11.4V57.6h11.55c3 0 5.25-.65 6.75-1.95 1.5-1.4 2.25-2.95 2.25-4.65 0-2-.9-3.65-2.7-4.95-1.8-1.3-4.45-1.95-7.95-1.95-3.6 0-7.1.75-10.5 2.25-3.4 1.4-6.1 3.3-8.1 5.7l-12.3-13.8c1.6-1.8 3.5-3.55 5.7-5.25 2.3-1.7 4.8-3.15 7.5-4.35 2.7-1.3 5.6-2.3 8.7-3 3.1-.8 6.25-1.2 9.45-1.2 4.9 0 9.35.5 13.35 1.5 4.1 1 7.6 2.45 10.5 4.35 3 1.9 5.3 4.25 6.9 7.05 1.6 2.8 2.4 5.95 2.4 9.45 0 3.4-.95 6.7-2.85 9.9-1.8 3.2-4.35 5.75-7.65 7.65 4.6 1.6 8.2 4.05 10.8 7.35 2.7 3.3 4.05 6.95 4.05 10.95 0 3.6-.7 6.95-2.1 10.05-1.4 3-3.55 5.6-6.45 7.8-2.9 2.1-6.6 3.75-11.1 4.95-4.4 1.2-9.7 1.8-15.9 1.8zm41.519-20.4h8.25c1.6-1.9 2.95-3.7 4.05-5.4 1.2-1.8 2.2-3.75 3-5.85.9-2.2 1.6-4.7 2.1-7.5s.85-6.25 1.05-10.35l1.65-31.35h63v60.45h11.4v38.55h-22.95V105h-48.6v20.4h-22.95V86.85zm60.15 0v-42.3h-19.2l-.6 13.35c-.3 4.1-.65 7.6-1.05 10.5-.4 2.9-.9 5.45-1.5 7.65-.5 2.2-1.15 4.15-1.95 5.85-.7 1.7-1.6 3.35-2.7 4.95h27zM532.717 96.9c-2.8 2.9-6.2 5.3-10.2 7.2-3.9 1.9-8.3 2.85-13.2 2.85-5.4 0-10.4-.95-15-2.85-4.6-2-8.6-4.75-12-8.25-3.3-3.6-5.9-7.95-7.8-13.05-1.8-5.1-2.7-10.8-2.7-17.1 0-6.3.9-12 2.7-17.1 1.9-5.1 4.5-9.4 7.8-12.9 3.4-3.6 7.4-6.35 12-8.25 4.6-2 9.6-3 15-3 4.9 0 9.3.95 13.2 2.85 4 1.9 7.4 4.35 10.2 7.35V26.4h22.95V105h-22.95v-8.1zm-17.7-10.05c3.6 0 7-.85 10.2-2.55 3.3-1.8 5.8-4.3 7.5-7.5V54.75c-1.7-3.3-4.2-5.8-7.5-7.5-3.2-1.8-6.6-2.7-10.2-2.7-5.7 0-10.45 1.8-14.25 5.4-3.8 3.6-5.7 8.85-5.7 15.75s1.9 12.15 5.7 15.75c3.8 3.6 8.55 5.4 14.25 5.4zm95.347 20.25c-6.6 0-12.55-1.05-17.85-3.15-5.2-2.2-9.65-5.15-13.35-8.85-3.7-3.8-6.55-8.2-8.55-13.2-1.9-5-2.85-10.3-2.85-15.9 0-6.2 1-11.85 3-16.95s4.8-9.45 8.4-13.05c3.6-3.7 7.85-6.55 12.75-8.55 4.9-2 10.25-3 16.05-3 5.8 0 11 .95 15.6 2.85 4.7 1.8 8.7 4.4 12 7.8 3.3 3.3 5.8 7.3 7.5 12 1.8 4.7 2.7 9.9 2.7 15.6 0 1.4-.1 3.05-.3 4.95-.1 1.9-.25 3.4-.45 4.5h-54.6c.9 4.5 3 8.2 6.3 11.1 3.3 2.9 8.25 4.35 14.85 4.35 4.5 0 8.45-1.05 11.85-3.15 3.5-2.2 6.25-4.55 8.25-7.05l12.15 15.15c-3.5 3.9-8.1 7.3-13.8 10.2-5.6 2.9-12.15 4.35-19.65 4.35zm-2.4-64.2c-4.2 0-7.75 1.05-10.65 3.15-2.8 2.1-4.85 5.25-6.15 9.45h32.4c-.5-4.2-2.1-7.35-4.8-9.45-2.7-2.1-6.3-3.15-10.8-3.15zm49.983-16.5h29.7l21.45 53.1 21.45-53.1h29.7V105h-22.95V60.6l-17.85 44.4h-20.7l-17.85-44.4V105h-22.95V26.4zm148.828 0h22.95v45.75l37.35-45.75h20.7V105h-22.95V59.1l-37.5 45.9h-20.55V26.4z" fill="#333"/><path d="M.232 148.4h22.95v45.75l37.35-45.75h20.7V227h-22.95v-45.9l-37.5 45.9H.232v-78.6zm97.266 0h22.949v30h33.3v-30h22.95V227h-22.95v-30.45h-33.3V227h-22.95v-78.6zm114.561 18.15h-25.2V148.4h73.2v18.15h-25.05V227h-22.95v-60.45zm96.694 62.55c-6.6 0-12.55-1.05-17.85-3.15-5.2-2.2-9.65-5.15-13.35-8.85-3.7-3.8-6.55-8.2-8.55-13.2-1.9-5-2.85-10.3-2.85-15.9 0-6.2 1-11.85 3-16.95s4.8-9.45 8.4-13.05c3.6-3.7 7.85-6.55 12.75-8.55 4.9-2 10.25-3 16.05-3 5.8 0 11 .95 15.6 2.85 4.7 1.8 8.7 4.4 12 7.8 3.3 3.3 5.8 7.3 7.5 12 1.8 4.7 2.7 9.9 2.7 15.6 0 1.4-.1 3.05-.3 4.95-.1 1.9-.25 3.4-.45 4.5h-54.6c.9 4.5 3 8.2 6.3 11.1 3.3 2.9 8.25 4.35 14.85 4.35 4.5 0 8.45-1.05 11.85-3.15 3.5-2.2 6.25-4.55 8.25-7.05l12.15 15.15c-3.5 3.9-8.1 7.3-13.8 10.2-5.6 2.9-12.15 4.35-19.65 4.35zm-2.4-64.2c-4.2 0-7.75 1.05-10.65 3.15-2.8 2.1-4.85 5.25-6.15 9.45h32.4c-.5-4.2-2.1-7.35-4.8-9.45-2.7-2.1-6.3-3.15-10.8-3.15zm49.982-16.5h61.2v18.15h-38.25V227h-22.95v-78.6zm71.485 0h22.95v8.25c2.7-3 6.05-5.45 10.05-7.35 4-1.9 8.45-2.85 13.35-2.85 5.4 0 10.4 1 15 3 4.6 1.9 8.55 4.65 11.85 8.25 3.4 3.5 6 7.8 7.8 12.9 1.9 5.1 2.85 10.8 2.85 17.1 0 6.3-.95 12-2.85 17.1-1.8 5.1-4.4 9.45-7.8 13.05-3.3 3.5-7.25 6.25-11.85 8.25-4.6 1.9-9.6 2.85-15 2.85-4.9 0-9.35-.95-13.35-2.85-4-1.9-7.35-4.3-10.05-7.2v33h-22.95V148.4zm40.65 60.45c5.7 0 10.45-1.8 14.25-5.4 3.8-3.6 5.7-8.85 5.7-15.75s-1.9-12.15-5.7-15.75c-3.8-3.6-8.55-5.4-14.25-5.4-3.6 0-7.05.9-10.35 2.7-3.3 1.7-5.75 4.2-7.35 7.5v22.05c1.6 3.2 4.05 5.7 7.35 7.5 3.3 1.7 6.75 2.55 10.35 2.55zm55.297-60.45h22.95v45.75l37.35-45.75h20.7V227h-22.95v-45.9l-37.5 45.9h-20.55v-78.6zm97.266 0h22.95v8.25c2.7-3 6.05-5.45 10.05-7.35 4-1.9 8.45-2.85 13.35-2.85 5.4 0 10.4 1 15 3 4.6 1.9 8.55 4.65 11.85 8.25 3.4 3.5 6 7.8 7.8 12.9 1.9 5.1 2.85 10.8 2.85 17.1 0 6.3-.95 12-2.85 17.1-1.8 5.1-4.4 9.45-7.8 13.05-3.3 3.5-7.25 6.25-11.85 8.25-4.6 1.9-9.6 2.85-15 2.85-4.9 0-9.35-.95-13.35-2.85-4-1.9-7.35-4.3-10.05-7.2v33h-22.95V148.4zm40.65 60.45c5.7 0 10.45-1.8 14.25-5.4 3.8-3.6 5.7-8.85 5.7-15.75s-1.9-12.15-5.7-15.75c-3.8-3.6-8.55-5.4-14.25-5.4-3.6 0-7.05.9-10.35 2.7-3.3 1.7-5.75 4.2-7.35 7.5v22.05c1.6 3.2 4.05 5.7 7.35 7.5 3.3 1.7 6.75 2.55 10.35 2.55zm77.797 7.2l-30.75-67.65h24.45l18.3 42.3 16.95-42.3h24.6l-45.15 103.5h-24.6l16.2-35.85zm99.399 13.05c-6.6 0-12.55-1.05-17.85-3.15-5.2-2.2-9.65-5.15-13.35-8.85-3.7-3.8-6.55-8.2-8.55-13.2-1.9-5-2.85-10.3-2.85-15.9 0-6.2 1-11.85 3-16.95s4.8-9.45 8.4-13.05c3.6-3.7 7.85-6.55 12.75-8.55 4.9-2 10.25-3 16.05-3 5.8 0 11 .95 15.6 2.85 4.7 1.8 8.7 4.4 12 7.8 3.3 3.3 5.8 7.3 7.5 12 1.8 4.7 2.7 9.9 2.7 15.6 0 1.4-.1 3.05-.3 4.95-.1 1.9-.25 3.4-.449 4.5h-54.601c.9 4.5 3 8.2 6.3 11.1 3.3 2.9 8.25 4.35 14.85 4.35 4.5 0 8.45-1.05 11.85-3.15 3.5-2.2 6.25-4.55 8.25-7.05l12.15 15.15c-3.5 3.9-8.1 7.3-13.8 10.2-5.6 2.9-12.15 4.35-19.65 4.35zm-2.4-64.2c-4.2 0-7.75 1.05-10.65 3.15-2.8 2.1-4.85 5.25-6.15 9.45h32.4c-.5-4.2-2.1-7.35-4.8-9.45-2.7-2.1-6.3-3.15-10.8-3.15zm49.983-16.5h29.7l21.45 53.1 21.45-53.1h29.7V227h-22.95v-44.4l-17.85 44.4h-20.7l-17.85-44.4V227h-22.95v-78.6z" fill="#CE3A57"/></svg>